<svg width="586" height="824" viewBox="0 0 586 824" fill="none" xmlns="http://www.w3.org/2000/svg">
<rect x="585.453" y="824" width="585" height="824" transform="rotate(180 585.453 824)" fill="url(#paint0_linear_202_46)"/>
<path d="M417.188 579.041L188.17 594.589C139.813 596.785 98.9281 561.373 97.3576 515.966L90.4168 313.943C88.7703 266.214 131.099 227.419 181.913 230.12L421.317 237.642C467.825 240.115 503.922 276.613 503.086 320.303L499.641 499.257C498.805 542.064 462.759 576.946 417.188 579.016V579.041Z" fill="#606873"/>
<path d="M370.833 342.616C370.833 342.616 407.917 331.232 454.527 374.822C501.136 418.412 503.036 520.736 496.374 562.433C489.711 604.13 489.711 587.068 489.711 587.068L431.703 583.281L411.742 489.463L369.895 441.128L370.858 342.591L370.833 342.616Z" fill="#EAB79D"/>
<path d="M454.526 374.848C407.917 331.258 370.832 342.641 370.832 342.641L369.87 441.179L411.717 489.514L416.15 510.312C417.239 485.425 421.292 460.69 428.385 436.787C434.616 415.812 443.583 394.813 459.111 379.517C457.642 377.902 456.097 376.337 454.526 374.873V374.848Z" fill="#E2A58A"/>
<path d="M176.847 367.276L223.887 292.034L229.941 290.823C234.804 290.646 243.417 290.343 246.33 290.596C250.434 290.949 249.699 285.194 245.215 285.194C244.861 285.194 244.405 285.245 243.949 285.32L234.374 279.086L228.395 265.406L237.363 259.651C237.363 259.651 228.395 250.287 213.425 274.038C149.818 302.812 78.0046 351.046 88.4664 402.889C101.816 468.994 221.531 488.555 221.531 488.555L306.162 340.243L176.821 367.25L176.847 367.276Z" fill="#EBC1AA"/>
<path d="M221.531 488.555L306.162 340.243L212.842 359.729C202.938 381.536 187.612 400.946 169.551 416.847C155.011 429.644 138.749 440.321 121.599 449.432C161.369 478.711 221.531 488.555 221.531 488.555Z" fill="#E2A58A"/>
<path d="M293.825 264.068C292.888 265.355 272.117 358.82 272.117 358.82L262.389 361.041C262.389 361.041 271.179 393.475 299.677 392.415C328.174 391.38 341.347 361.672 346.793 337.972L334.963 340.041L311.177 266.34L293.851 264.043L293.825 264.068Z" fill="#EBC1AA"/>
<path d="M311.152 266.39L293.826 264.093C293.319 264.775 287.265 291.302 281.692 316.088C283.617 317.325 285.77 318.183 288.025 318.486C295.498 319.47 302.514 314.978 308.442 310.334C313.027 306.724 317.434 302.888 321.614 298.849L311.152 266.39Z" fill="#E2A58A"/>
<path d="M320.17 257.607C325.16 249.252 326.705 239.257 320.17 231.231C312.013 221.235 295.092 225.047 286.606 232.493C277.892 240.14 270.546 253.846 273.282 265.683C276.803 280.929 295.776 277.143 305.959 271.59C306.668 271.211 307.377 270.757 308.061 270.302C315.787 274.467 322.804 272.726 323.539 265.355C323.944 261.292 322.171 258.944 320.144 257.607H320.17Z" fill="#EBC1AA"/>
<path d="M304.338 250.565L302.59 265.785L317.434 257.077L320.17 257.581C320.17 257.581 334.482 248.369 335.343 240.09C336.205 231.811 327.921 229.641 327.921 229.641C325.743 214.85 300.412 212.679 290.355 218.333C280.299 223.987 282.047 229.211 282.047 229.211L306.061 242.69L304.313 250.514L304.338 250.565Z" fill="#2A3038"/>
<path d="M283.896 230.246L327.491 253.593L322.653 258.162L279.691 237.238L283.896 230.246Z" fill="#F27244"/>
<path d="M274.802 338.83L257.678 343.575C257.678 343.575 236.755 455.389 197.77 484.769C173.984 586.159 173.984 602.262 173.984 602.262C173.984 602.262 299.5 611.727 405.08 600.369C410.779 497.086 411.742 489.514 411.742 489.514C411.742 489.514 359.433 422.249 382.257 337.896C359.433 334.11 346.768 337.997 346.768 337.997C346.768 337.997 346.134 352.106 330.91 366.316C315.686 380.527 300.918 388.2 280.502 378.634C264.34 371.062 274.802 338.83 274.802 338.83Z" fill="white"/>
<path d="M382.256 337.896C373.618 336.457 366.424 336.129 360.826 336.28C337.369 433.026 294.408 525.002 235.31 605.215C281.362 606.578 346.311 606.704 405.08 600.369C410.779 497.086 411.742 489.514 411.742 489.514C411.742 489.514 359.433 422.249 382.256 337.896Z" fill="#EAEAEA"/>
<path d="M393.655 213.764C393.655 213.764 364.17 254.502 364.17 282.948C364.17 311.394 376.531 319.9 396.492 320.859C416.63 321.818 426.459 300.061 425.015 285.8C420.253 238.424 393.63 213.79 393.63 213.79L393.655 213.764Z" fill="#77A5DE"/>
<path d="M177.632 194.001C177.632 194.001 158.557 220.352 158.557 238.752C158.557 257.152 166.562 262.655 179.481 263.286C192.526 263.917 198.859 249.833 197.947 240.595C194.857 209.953 177.632 194.001 177.632 194.001Z" fill="#77A5DE"/>
<path d="M487.888 390.143C487.888 390.143 468.813 416.494 468.813 434.894C468.813 453.294 476.818 458.797 489.737 459.428C502.782 460.059 509.115 445.974 508.203 436.737C505.138 406.07 487.888 390.143 487.888 390.143Z" fill="#77A5DE"/>
<path d="M315.003 551.327C315.003 551.327 293.344 581.262 293.344 602.136C293.344 623.01 302.413 629.294 317.105 629.976C331.898 630.683 339.118 614.706 338.054 604.231C334.558 569.425 315.003 551.327 315.003 551.327Z" fill="#77A5DE"/>
<path d="M134.315 475.051C134.315 475.051 112.657 504.986 112.657 525.86C112.657 546.734 121.751 553.018 136.418 553.7C151.211 554.407 158.43 538.43 157.366 527.955C153.871 493.149 134.315 475.051 134.315 475.051Z" fill="#77A5DE"/>
<path d="M276.702 337.896C276.702 337.896 267.203 432.648 270.04 480.983C272.902 529.318 274.802 544.462 274.802 544.462L217.756 550.141C217.756 550.141 212.057 476.238 218.719 423.157C225.381 370.077 233.943 335.978 276.727 337.871L276.702 337.896Z" fill="#F27244"/>
<path d="M218.694 423.157C217.655 431.361 216.946 440.043 216.439 448.877C239.845 425.151 259.375 397.64 274.068 367.78C275.486 350.011 276.702 337.871 276.702 337.871C233.918 335.978 225.356 370.077 218.694 423.157Z" fill="#F2A244"/>
<path d="M332.81 334.11C332.81 334.11 383.219 422.224 333.773 534.038L378.457 543.503C378.457 543.503 396.062 494.714 380.357 468.161C381.623 458.696 392.288 455.692 393.2 444.46C393.858 436.409 395.581 427.751 395.581 419.346C395.581 352.081 368.958 331.232 368.958 331.232C368.958 331.232 347.097 328.38 332.81 334.085V334.11Z" fill="#F27244"/>
<path d="M368.932 331.258C368.932 331.258 347.072 328.406 332.785 334.11C332.785 334.11 348.946 362.404 353.987 407.256C361.612 398.17 368.35 388.275 374.201 378.028C378.178 371.087 381.775 363.944 385.119 356.675C377.646 338.148 368.907 331.258 368.907 331.258H368.932Z" fill="#F2A244"/>
<path d="M498.273 542.569L395.58 458.721C395.58 458.721 395.58 447.817 391.781 444.031C387.981 440.245 361.358 444.99 361.358 444.99L357.558 465.839L378.482 466.798C378.482 466.798 383.7 482.901 384.181 483.86C399.405 531.236 418.404 613.671 460.251 613.671C502.098 613.671 494.473 564.402 498.298 542.594L498.273 542.569Z" fill="#EBC1AA"/>
<path d="M259.097 257.455L258.742 254.956L265.505 252.836C265.505 252.836 271.559 257.455 274.067 263.488C276.575 269.52 276.195 278.758 274.067 280.197C269.432 281.61 267.304 282.317 267.304 282.317L265.176 276.638L259.122 257.455H259.097Z" fill="white"/>
<path d="M214.893 269.192L264.112 255.688C264.112 255.688 274.801 263.513 271.255 278.43L225.608 294.054C225.608 294.054 204.204 289.788 214.919 269.192H214.893Z" fill="#2A3038"/>
<path d="M235.564 258.768L245.19 262.327C245.19 262.327 239.845 265.885 236.273 266.239C232.702 266.592 228.421 263.74 228.421 263.74L235.564 258.768Z" fill="#EBC1AA"/>
<defs>
<linearGradient id="paint0_linear_202_46" x1="877.953" y1="824" x2="585.453" y2="1648" gradientUnits="userSpaceOnUse">
<stop stop-color="#F27244"/>
<stop offset="1" stop-color="#F27244" stop-opacity="0"/>
</linearGradient>
</defs>
</svg>
