<svg width="586" height="824" viewBox="0 0 586 824" fill="none" xmlns="http://www.w3.org/2000/svg">
<rect x="585.453" y="824" width="585" height="824" transform="rotate(180 585.453 824)" fill="url(#paint0_linear_202_45)"/>
<path d="M416.525 555.385L188.386 565.777C140.225 567.975 99.4832 532.584 97.9321 487.189L91.0039 285.186C89.3753 237.464 131.539 198.713 182.156 201.401L420.635 214.069C466.961 216.525 502.92 253.027 502.093 296.716L498.655 475.633C497.828 518.443 461.92 553.317 416.499 555.385H416.525Z" fill="#606873"/>
<path d="M116.52 602.357H311.491C311.491 602.357 317.178 560.116 305.804 534.936C294.429 509.757 270.878 525.19 268.422 551.998C257.849 500.011 245.673 496.754 235.927 497.581C226.181 498.383 211.549 524.389 210.748 549.568C205.862 485.379 191.256 461.829 173.367 462.63C155.503 463.431 143.302 511.386 153.048 562.546C137.614 518.676 127.868 517.047 116.494 523.562C105.119 530.051 102.689 569.862 116.494 602.357H116.52Z" fill="#33465E"/>
<path d="M238.176 271.2C238.176 271.2 206.534 302.842 189.213 324.325L165.689 256.775C165.689 256.775 170.497 251.656 170.807 248.451C171.117 245.245 167.291 245.556 167.291 245.556C167.938 237.542 167.291 234.646 163.129 236.585C158.967 238.498 149.661 246.848 152.556 252.303L155.452 257.757C155.452 257.757 145.835 305.531 152.556 351.701C159.278 397.872 195.831 387.945 213.798 377.682C231.765 367.419 267.336 335.363 267.336 335.363C267.336 335.363 263.821 283.428 238.15 271.226L238.176 271.2Z" fill="#EBC1AA"/>
<path d="M155.452 257.732L169.541 257.189L174.686 276.862L149.455 277.715L155.452 257.732Z" fill="#F27244"/>
<path d="M229.208 280.3C240.453 304.807 242.392 333.037 238.075 360.181C253.094 348.16 267.339 335.312 267.339 335.312C267.339 335.312 263.823 283.376 238.152 271.174C238.152 271.174 234.585 274.742 229.208 280.274V280.3Z" fill="#E2A58A"/>
<path d="M252.911 197.756C252.601 198.713 258.03 259.308 258.03 259.308L252.575 262.514C252.575 262.514 264.131 280.481 281.115 274.38C298.099 268.279 300.348 247.779 299.082 232.371L292.36 235.887L263.82 195.817L252.911 197.73V197.756Z" fill="#EBC1AA"/>
<path d="M263.823 195.843L252.914 197.756C252.733 198.273 254.18 215.49 255.602 231.596C256.998 231.984 258.472 232.087 259.893 231.828C264.598 230.975 267.959 226.917 270.648 222.961C272.716 219.911 274.629 216.731 276.387 213.474L263.823 195.817V195.843Z" fill="#E2A58A"/>
<path d="M303.788 229.838C303.788 229.838 339.282 208.898 362.781 196.929C386.28 184.96 411.511 199.488 423.919 212.311C436.328 225.133 457.268 254.629 457.268 254.629C457.268 254.629 460.68 255.922 461.533 258.895C462.386 261.894 461.094 267.012 458.974 269.158C456.854 271.304 450.857 265.306 450.857 265.306C450.857 265.306 444.006 269.571 444.006 266.599C444.006 263.626 445.298 259.748 445.298 259.748C445.298 259.748 410.658 238.808 402.127 237.955C393.57 237.102 342.694 302.093 342.694 302.093L303.788 229.838Z" fill="#EBC1AA"/>
<path d="M452.15 248.218C450.857 249.072 445.299 259.748 445.299 259.748L428.625 251.631L444.006 233.25L452.124 248.218H452.15Z" fill="#F27244"/>
<path d="M342.849 301.886C344.271 300.076 355.517 285.78 367.951 271.174C346.986 258.869 327.985 243.281 311.776 225.159C306.864 228.003 303.788 229.812 303.788 229.812L342.229 301.188L342.849 301.86V301.886Z" fill="#E2A58A"/>
<path d="M238.177 271.2C238.177 271.2 249.732 261.273 253.894 260.291C259.349 269.908 268.009 278.258 281.142 274.406C294.3 270.554 295.903 257.732 297.169 247.158C298.436 236.585 296.213 232.733 296.213 232.733L305.519 226.012C305.519 226.012 334.37 285.651 356.188 301.033C374.155 334.071 376.352 338.853 376.352 338.853C376.352 338.853 338.764 383.731 279.461 391.409C267.57 365.351 261.598 338.233 261.598 338.233C261.598 338.233 262.244 303.928 238.202 271.226L238.177 271.2Z" fill="white"/>
<path d="M238.177 271.2C238.177 271.2 249.732 261.273 253.894 260.291C259.349 269.908 268.009 278.258 281.142 274.406C294.3 270.554 295.903 257.732 297.169 247.158C298.436 236.585 296.213 232.733 296.213 232.733L305.519 226.012C305.519 226.012 334.37 285.651 356.188 301.033C374.155 334.071 376.352 338.853 376.352 338.853C376.352 338.853 338.764 383.731 279.461 391.409C267.57 365.351 261.598 338.233 261.598 338.233C261.598 338.233 262.244 303.928 238.202 271.226L238.177 271.2Z" fill="white"/>
<path d="M267.699 360.413C270.594 369.591 274.498 380.577 279.436 391.383C338.765 383.68 376.327 338.827 376.327 338.827C376.327 338.827 374.103 334.045 356.162 301.007C347.425 294.854 337.575 281.592 328.889 267.917C320.126 304.574 298.074 338.104 267.699 360.439V360.413Z" fill="#EAEAEA"/>
<path d="M513.236 388.643L506.954 394.408C513.003 397.407 521.146 402.37 522.852 407.851C524.042 411.728 524.843 416.382 525.386 420.414C531.745 424.189 540.819 428.092 550.979 427.73C527.661 401 513.262 388.643 513.262 388.643H513.236Z" fill="#2A3038"/>
<path d="M433.02 462.009L409.702 424.292L343.186 474.341C343.186 474.341 375.061 535.246 399.413 544.269C413.425 549.465 444.808 531.343 480.638 477.417L449.823 446.602L432.994 461.984L433.02 462.009Z" fill="#EBC1AA"/>
<path d="M525.361 420.414C524.844 416.382 524.042 411.728 522.827 407.851C521.147 402.37 512.978 397.407 506.929 394.408L449.823 446.628L480.638 477.443C492.168 460.071 504.163 439.027 516.184 413.822C516.184 413.822 519.673 417.08 525.335 420.44L525.361 420.414Z" fill="#F27244"/>
<path d="M421.721 443.707L409.726 424.292L343.211 474.341C343.211 474.341 354.766 496.418 369.295 515.961C382.195 488.972 400.058 464.336 421.721 443.707Z" fill="#E2A58A"/>
<path d="M326.744 455.159C326.744 455.159 340.445 480.519 342.513 482.587C393.26 459.269 419.292 431.169 419.292 431.169C419.292 431.169 395.974 371.53 372.682 340.663C331.552 431.841 326.744 455.159 326.744 455.159Z" fill="#2A3038"/>
<path d="M216.36 646.433C212.12 644.495 207.415 640.384 204.158 637.179C176.962 636.946 170.163 644.96 169.75 646.201C225.511 658.532 228.717 659.462 228.717 659.462C228.717 659.462 229.673 654.499 231.276 646.33C227.424 647.467 221.194 648.631 216.36 646.433Z" fill="#2A3038"/>
<path d="M306.166 468.188L257.023 406.946C257.023 406.946 210.956 426.49 201.933 449.006C198.624 457.279 193.558 494.091 196.013 540.236L249.035 555.824C255.446 523.381 261.03 495.435 261.573 493.574L306.14 468.214L306.166 468.188Z" fill="#EBC1AA"/>
<path d="M213.152 637.515C209.921 637.308 206.922 637.204 204.13 637.179C207.413 640.41 212.092 644.495 216.332 646.433C221.166 648.631 227.396 647.442 231.248 646.33C235.074 626.838 242.493 588.966 249.034 555.798L196.012 540.21C197.615 570.456 202.449 604.683 213.126 637.541L213.152 637.515Z" fill="#F27244"/>
<path d="M254.722 407.954C252.059 409.169 247.38 411.392 241.77 414.417C252.421 439.002 260.745 464.595 266.51 490.756L297.403 473.177L279.384 434.84L257.669 407.773L254.696 407.98L254.722 407.954Z" fill="#E2A58A"/>
<path d="M246.99 405.55C248.361 405.55 372.68 340.637 372.68 340.637C372.68 340.637 387.312 359.379 388.217 392.754C389.121 426.128 369.474 443.5 343.416 458.571C317.358 473.643 293.135 487.37 293.135 487.37L246.965 405.55H246.99Z" fill="#33465E"/>
<path d="M267.571 442.026C287.089 433.03 316.042 419.665 332.018 411.961C359.86 398.544 352.131 377.217 351.665 369.461C351.459 366.075 349.08 360.052 346.469 354.338C344.841 355.191 343.186 356.045 341.454 356.949C343.315 361.422 345.047 366.385 345.72 370.832C347.555 382.723 345.254 397.329 327.443 406.946C316.016 413.099 284.917 426.748 264.029 435.77L267.571 442.052V442.026Z" fill="#FDFFFF"/>
<path d="M360.351 378.122C362.186 390.013 359.886 404.619 342.074 414.236C328.088 421.759 288.019 440.811 271.344 448.67L275.119 455.366C291.405 447.455 329.795 428.687 346.65 419.251C373.613 404.18 366.762 384.507 366.297 376.752C365.935 370.521 358.231 355.502 355.181 349.763C353.63 350.564 352.001 351.417 350.295 352.296C352.647 356.562 358.877 368.505 360.351 378.096V378.122Z" fill="#FDFFFF"/>
<path d="M273.515 195.559C277.186 189.406 278.323 182.038 273.515 176.119C267.518 168.751 255.109 171.569 248.879 177.049C242.493 182.685 237.09 192.793 239.081 201.505C241.666 212.724 255.6 209.958 263.071 205.848C263.588 205.563 264.105 205.227 264.622 204.891C270.284 207.942 275.454 206.675 275.997 201.246C276.307 198.247 274.989 196.541 273.515 195.533V195.559Z" fill="#EBC1AA"/>
<path d="M261.882 190.389L260.59 201.608L271.499 195.197L273.515 195.585C273.515 195.585 284.011 188.786 284.657 182.711C285.304 176.61 279.203 175.007 279.203 175.007C277.6 164.098 259.013 162.495 251.619 166.683C244.252 170.845 245.518 174.697 245.518 174.697L263.149 184.65L261.856 190.415L261.882 190.389Z" fill="#2A3038"/>
<path d="M246.863 175.421L278.867 192.612L275.326 195.998L243.787 180.565L246.863 175.421Z" fill="#F27244"/>
<path d="M334.785 632.189H458.535C458.535 632.189 468.721 605.976 458.535 597.264C448.35 588.526 435.243 607.449 435.243 607.449C433.795 581.236 419.241 571.051 410.503 573.972C401.766 576.893 390.132 592.895 390.132 608.897C374.13 582.684 363.919 610.345 362.471 620.53C352.286 604.528 331.889 617.609 334.81 632.163L334.785 632.189Z" fill="#606873"/>
<defs>
<linearGradient id="paint0_linear_202_45" x1="877.953" y1="824" x2="585.453" y2="1648" gradientUnits="userSpaceOnUse">
<stop stop-color="#F27244"/>
<stop offset="1" stop-color="#F27244" stop-opacity="0"/>
</linearGradient>
</defs>
</svg>
