<svg width="24" height="25" viewBox="0 0 24 25" fill="none" xmlns="http://www.w3.org/2000/svg">
<circle cx="12" cy="3.55556" r="3.55556" fill="black"/>
<circle cx="3.55556" cy="4.55556" r="2.05556" stroke="black" stroke-width="3"/>
<circle cx="20.4444" cy="4.55556" r="2.05556" stroke="black" stroke-width="3"/>
<path d="M5.09381 11.0267L7.49366 9.35751C8.81632 8.43756 10.3889 7.94446 12 7.94446V17.5696L9.08645 18.3125C7.80595 18.639 6.90984 19.7922 6.90984 21.1137V22.4058C6.90984 23.2887 6.19411 24.0045 5.31121 24.0045C4.4283 24.0045 3.71257 23.2887 3.71257 22.4058V20.196C3.71257 18.9865 4.2871 17.8489 5.26051 17.131L9.06487 14.3252V12.1622L5.48621 13.6151C4.80725 13.8908 4.0366 13.8186 3.42059 13.4218C2.77749 13.0074 2.38889 12.2948 2.38889 11.5298V9.94581C2.38889 9.19886 2.9944 8.59335 3.74135 8.59335C4.48829 8.59335 5.09381 9.19886 5.09381 9.94581V11.0267Z" fill="black"/>
<path d="M18.9062 11.0267L16.5063 9.35751C15.1837 8.43756 13.6111 7.94446 12 7.94446V17.5696L14.9135 18.3125C16.1941 18.639 17.0902 19.7922 17.0902 21.1137V22.4058C17.0902 23.2887 17.8059 24.0045 18.6888 24.0045C19.5717 24.0045 20.2874 23.2887 20.2874 22.4058V20.196C20.2874 18.9865 19.7129 17.8489 18.7395 17.131L14.9351 14.3252V12.1622L18.5138 13.6151C19.1927 13.8908 19.9634 13.8186 20.5794 13.4218C21.2225 13.0074 21.6111 12.2948 21.6111 11.5298V9.94581C21.6111 9.19886 21.0056 8.59335 20.2587 8.59335C19.5117 8.59335 18.9062 9.19886 18.9062 9.94581V11.0267Z" fill="black"/>
</svg>
